<?xml version="1.0" encoding="utf-8"?>
<!-- Generator: Adobe Illustrator 22.1.0, SVG Export Plug-In . SVG Version: 6.00 Build 0)  -->
<svg version="1.1" id="Layer_1" xmlns="http://www.w3.org/2000/svg" xmlns:xlink="http://www.w3.org/1999/xlink" x="0px" y="0px"
	 viewBox="0 0 68 11" style="enable-background:new 0 0 68 11;" xml:space="preserve">
<style type="text/css">
	.st0{fill:#464655;}
	.st1{fill:#FFE15A;}
	.st2{fill:#FF4B55;}
	.st3{fill:#F5F5F5;}
	.st4{fill:#41479B;}
	.st5{fill:#C8414B;}
	.st6{fill:#FFD250;}
	.st7{fill:#FAB446;}
	.st8{fill:#FFB441;}
	.st9{fill:#5064AA;}
	.st10{fill:#FFA0D2;}
</style>
<path class="st0" d="M17,3.7H0.1V0.3C0.1,0.1,0.2,0,0.3,0h16.4C16.9,0,17,0.1,17,0.3L17,3.7L17,3.7z"/>
<path class="st1" d="M16.7,11H0.3c-0.2,0-0.3-0.1-0.3-0.3V7.3H17v3.4C17,10.9,16.9,11,16.7,11z"/>
<rect x="0.1" y="3.7" class="st2" width="16.9" height="3.7"/>
<path class="st3" d="M34,3.7H17V0.3C17,0.1,17.1,0,17.3,0h16.4C33.9,0,34,0.1,34,0.3L34,3.7L34,3.7z"/>
<path class="st2" d="M33.7,11H17.3c-0.2,0-0.3-0.1-0.3-0.3V7.3h17v3.4C34,10.9,33.9,11,33.7,11z"/>
<rect x="17" y="3.7" class="st4" width="17" height="3.7"/>
<path class="st5" d="M34.3,11h16.4c0.2,0,0.3-0.1,0.3-0.3V0.3C51,0.1,50.9,0,50.7,0H34.3C34.1,0,34,0.1,34,0.3v10.4
	C34,10.8,34.1,11,34.3,11z"/>
<rect x="34" y="2.5" class="st6" width="17" height="6.3"/>
<path class="st5" d="M41.2,5.6l0.2-1.1c0-0.1-0.1-0.2-0.2-0.2h-0.2c-0.1,0-0.2,0.1-0.2,0.2L41.2,5.6z"/>
<rect x="40.9" y="5.1" class="st3" width="0.6" height="2.5"/>
<rect x="40.7" y="4.8" class="st7" width="0.9" height="0.3"/>
<g>
	<rect x="40.2" y="5.6" class="st5" width="1.5" height="0.3"/>
	<polygon class="st5" points="41.6,6.8 40.7,6.5 40.7,6.2 41.6,6.5 	"/>
	<path class="st5" d="M36.8,5.6L37,4.5c0-0.1-0.1-0.2-0.2-0.2h-0.2c-0.1,0-0.2,0.1-0.2,0.2L36.8,5.6z"/>
</g>
<path class="st3" d="M37.8,4.8c-0.2,0-0.3,0.1-0.3,0.3v1.9c0,0.4,0.3,1,1.5,1c1.1,0,1.5-0.7,1.5-1V5.1c0-0.2-0.1-0.3-0.3-0.3H37.8z"
	/>
<g>
	<path class="st5" d="M39,6.2h-1.5V5.1c0-0.2,0.1-0.3,0.3-0.3H39V6.2z"/>
	<path class="st5" d="M39,6.2h1.5v0.7c0,0.4-0.3,0.7-0.7,0.7l0,0c-0.4,0-0.7-0.3-0.7-0.7V6.2z"/>
</g>
<path class="st7" d="M37.5,6.2H39v0.7c0,0.4-0.3,0.7-0.7,0.7l0,0c-0.4,0-0.7-0.3-0.7-0.7V6.2z"/>
<g>
	<path class="st5" d="M38.7,7.5V6.2h-0.3v1.4C38.5,7.6,38.6,7.6,38.7,7.5z"/>
	<path class="st5" d="M38.1,7.6V6.2h-0.3v1.3C37.9,7.6,38,7.6,38.1,7.6z"/>
</g>
<rect x="37.8" y="5.6" class="st8" width="0.9" height="0.3"/>
<g>
	<rect x="37.8" y="5.1" class="st7" width="0.9" height="0.3"/>
	<rect x="38" y="5.2" class="st7" width="0.6" height="0.5"/>
</g>
<rect x="36.5" y="5.1" class="st3" width="0.6" height="2.5"/>
<g>
	<rect x="36.3" y="7.4" class="st7" width="0.9" height="0.3"/>
	<rect x="36.3" y="4.8" class="st7" width="0.9" height="0.3"/>
</g>
<rect x="36.2" y="7.6" class="st9" width="1.2" height="0.3"/>
<rect x="40.9" y="7.4" class="st7" width="0.9" height="0.3"/>
<rect x="40.6" y="7.6" class="st9" width="1.2" height="0.3"/>
<rect x="38.1" y="4.5" class="st7" width="1.8" height="0.3"/>
<rect x="38.8" y="3.6" class="st8" width="0.3" height="0.9"/>
<g>
	<path class="st3" d="M38.7,4c-0.2,0-0.4-0.2-0.4-0.4c0-0.2,0.2-0.4,0.4-0.4c0.2,0,0.4,0.2,0.4,0.4C39.1,3.8,38.9,4,38.7,4z
		 M38.7,3.5c-0.1,0-0.1,0.1-0.1,0.1c0,0.1,0.1,0.1,0.1,0.1s0.1-0.1,0.1-0.1C38.8,3.5,38.8,3.5,38.7,3.5z"/>
	<path class="st3" d="M39.3,4c-0.2,0-0.4-0.2-0.4-0.4c0-0.2,0.2-0.4,0.4-0.4c0.2,0,0.4,0.2,0.4,0.4S39.5,4,39.3,4z M39.3,3.5
		c-0.1,0-0.1,0.1-0.1,0.1c0,0.1,0.1,0.1,0.1,0.1c0.1,0,0.1-0.1,0.1-0.1C39.4,3.5,39.4,3.5,39.3,3.5z"/>
	<path class="st3" d="M39.9,4.3c-0.2,0-0.4-0.2-0.4-0.4c0-0.2,0.2-0.4,0.4-0.4c0.2,0,0.4,0.2,0.4,0.4C40.3,4.1,40.1,4.3,39.9,4.3z
		 M39.9,3.8c-0.1,0-0.1,0.1-0.1,0.1C39.7,4,39.8,4,39.9,4C39.9,4,40,4,40,3.9S39.9,3.8,39.9,3.8z"/>
	<path class="st3" d="M38.1,4.3c-0.2,0-0.4-0.2-0.4-0.4c0-0.2,0.2-0.4,0.4-0.4c0.2,0,0.4,0.2,0.4,0.4C38.5,4.1,38.3,4.3,38.1,4.3z
		 M38.1,3.8C38,3.8,38,3.8,38,3.9C38,4,38,4,38.1,4c0.1,0,0.1-0.1,0.1-0.1C38.2,3.8,38.2,3.8,38.1,3.8z"/>
</g>
<path class="st7" d="M39.9,6.8v0.1c0,0.1-0.1,0.1-0.1,0.1c-0.1,0-0.1-0.1-0.1-0.1V6.8H39.9 M40.2,6.5h-0.9v0.4
	c0,0.2,0.2,0.4,0.4,0.4c0.2,0,0.4-0.2,0.4-0.4L40.2,6.5L40.2,6.5z"/>
<path class="st10" d="M39.7,5.9L39.7,5.9c-0.2,0-0.3-0.1-0.3-0.3V5.3c0-0.2,0.1-0.3,0.3-0.3l0,0c0.2,0,0.3,0.1,0.3,0.3v0.3
	C40,5.8,39.9,5.9,39.7,5.9z"/>
<ellipse class="st9" cx="39" cy="6.2" rx="0.4" ry="0.4"/>
<rect x="38.8" y="3" class="st7" width="0.3" height="0.9"/>
<path class="st5" d="M38.1,4.5l-0.3-0.3L38,4c0.3-0.3,0.6-0.4,1-0.4l0,0c0.4,0,0.7,0.1,1,0.4l0.2,0.2l-0.3,0.3H38.1z"/>
<g>
	<ellipse class="st6" cx="39" cy="4.2" rx="0.1" ry="0.1"/>
	<ellipse class="st6" cx="38.4" cy="4.2" rx="0.1" ry="0.1"/>
	<ellipse class="st6" cx="39.6" cy="4.2" rx="0.1" ry="0.1"/>
</g>
<g>
	<rect x="36.3" y="5.6" class="st5" width="1.5" height="0.3"/>
	<polygon class="st5" points="36.3,6.8 37.2,6.5 37.2,6.2 36.3,6.5 	"/>
</g>
<path class="st3" d="M67.5,11H51.3c-0.2,0-0.3-0.1-0.3-0.3V0.3C51,0.1,51.1,0,51.3,0h16.2c0.2,0,0.3,0.1,0.3,0.3v10.4
	C67.8,10.9,67.7,11,67.5,11z"/>
<g>
	<path class="st2" d="M67.8,0.8H51V0.3C51,0.1,51.1,0,51.3,0h16.2c0.2,0,0.3,0.1,0.3,0.3L67.8,0.8L67.8,0.8z"/>
	<rect x="51" y="3.4" class="st2" width="16.8" height="0.8"/>
	<rect x="51" y="1.7" class="st2" width="16.8" height="0.8"/>
	<path class="st2" d="M67.8,5.9H51.3c-0.2,0-0.3-0.1-0.3-0.3V5.1h16.8V5.9z"/>
	<rect x="51" y="8.5" class="st2" width="16.8" height="0.8"/>
	<path class="st2" d="M67.5,11H51.3c-0.2,0-0.3-0.1-0.3-0.3v-0.6h16.8v0.6C67.8,10.9,67.7,11,67.5,11z"/>
	<rect x="51" y="6.8" class="st2" width="16.8" height="0.8"/>
</g>
<path class="st4" d="M58.5,0h-7.2C51.1,0,51,0.1,51,0.3v5.3c0,0.2,0.1,0.3,0.3,0.3h7.2c0.2,0,0.3-0.1,0.3-0.3V0.3
	C58.8,0.1,58.7,0,58.5,0z"/>
<g>
	<path class="st3" d="M51.8,0.7l0.1,0.2l0.2,0c0,0,0,0,0,0L51.9,1L52,1.2c0,0,0,0,0,0l-0.2-0.1l-0.2,0.1c0,0,0,0,0,0L51.6,1
		l-0.2-0.1c0,0,0,0,0,0l0.2,0L51.8,0.7C51.8,0.6,51.8,0.6,51.8,0.7z"/>
	<path class="st3" d="M51.8,1.7l0.1,0.2l0.2,0c0,0,0,0,0,0L51.9,2L52,2.2c0,0,0,0,0,0l-0.2-0.1l-0.2,0.1c0,0,0,0,0,0L51.6,2
		l-0.2-0.1c0,0,0,0,0,0l0.2,0L51.8,1.7C51.8,1.6,51.8,1.6,51.8,1.7z"/>
	<path class="st3" d="M51.8,2.7l0.1,0.2l0.2,0c0,0,0,0,0,0L51.9,3L52,3.2c0,0,0,0,0,0l-0.2-0.1l-0.2,0.1c0,0,0,0,0,0L51.6,3
		l-0.2-0.1c0,0,0,0,0,0l0.2,0L51.8,2.7C51.8,2.6,51.8,2.6,51.8,2.7z"/>
	<path class="st3" d="M51.8,3.7l0.1,0.2l0.2,0c0,0,0,0,0,0L51.9,4L52,4.2c0,0,0,0,0,0l-0.2-0.1l-0.2,0.1c0,0,0,0,0,0L51.6,4
		l-0.2-0.1c0,0,0,0,0,0l0.2,0L51.8,3.7C51.8,3.7,51.8,3.7,51.8,3.7z"/>
	<path class="st3" d="M51.8,4.7l0.1,0.2l0.2,0c0,0,0,0,0,0L51.9,5L52,5.2c0,0,0,0,0,0l-0.2-0.1l-0.2,0.1c0,0,0,0,0,0L51.6,5
		l-0.2-0.1c0,0,0,0,0,0l0.2,0L51.8,4.7C51.8,4.7,51.8,4.7,51.8,4.7z"/>
	<path class="st3" d="M52.6,1.2l0.1,0.2l0.2,0c0,0,0,0,0,0l-0.2,0.1l0.1,0.2c0,0,0,0,0,0l-0.2-0.1l-0.2,0.1c0,0,0,0,0,0l0.1-0.2
		l-0.2-0.1c0,0,0,0,0,0l0.2,0L52.6,1.2C52.5,1.1,52.6,1.1,52.6,1.2z"/>
	<path class="st3" d="M52.6,2.2l0.1,0.2l0.2,0c0,0,0,0,0,0l-0.2,0.1l0.1,0.2c0,0,0,0,0,0l-0.2-0.1l-0.2,0.1c0,0,0,0,0,0l0.1-0.2
		l-0.2-0.1c0,0,0,0,0,0l0.2,0L52.6,2.2C52.5,2.1,52.6,2.1,52.6,2.2z"/>
	<path class="st3" d="M52.6,3.2l0.1,0.2l0.2,0c0,0,0,0,0,0l-0.2,0.1l0.1,0.2c0,0,0,0,0,0l-0.2-0.1l-0.2,0.1c0,0,0,0,0,0l0.1-0.2
		l-0.2-0.1c0,0,0,0,0,0l0.2,0L52.6,3.2C52.5,3.1,52.6,3.1,52.6,3.2z"/>
	<path class="st3" d="M52.6,4.2l0.1,0.2l0.2,0c0,0,0,0,0,0l-0.2,0.1l0.1,0.2c0,0,0,0,0,0l-0.2-0.1l-0.2,0.1c0,0,0,0,0,0l0.1-0.2
		l-0.2-0.1c0,0,0,0,0,0l0.2,0L52.6,4.2C52.5,4.1,52.6,4.1,52.6,4.2z"/>
	<path class="st3" d="M53.4,0.7l0.1,0.2l0.2,0c0,0,0,0,0,0L53.5,1l0.1,0.2c0,0,0,0,0,0l-0.2-0.1l-0.2,0.1c0,0,0,0,0,0L53.2,1L53,0.9
		c0,0,0,0,0,0l0.2,0L53.4,0.7C53.3,0.6,53.4,0.6,53.4,0.7z"/>
	<path class="st3" d="M53.4,1.7l0.1,0.2l0.2,0c0,0,0,0,0,0L53.5,2l0.1,0.2c0,0,0,0,0,0l-0.2-0.1l-0.2,0.1c0,0,0,0,0,0L53.2,2L53,1.9
		c0,0,0,0,0,0l0.2,0L53.4,1.7C53.3,1.6,53.4,1.6,53.4,1.7z"/>
	<path class="st3" d="M53.4,2.7l0.1,0.2l0.2,0c0,0,0,0,0,0L53.5,3l0.1,0.2c0,0,0,0,0,0l-0.2-0.1l-0.2,0.1c0,0,0,0,0,0L53.2,3L53,2.9
		c0,0,0,0,0,0l0.2,0L53.4,2.7C53.3,2.6,53.4,2.6,53.4,2.7z"/>
	<path class="st3" d="M53.4,3.7l0.1,0.2l0.2,0c0,0,0,0,0,0L53.5,4l0.1,0.2c0,0,0,0,0,0l-0.2-0.1l-0.2,0.1c0,0,0,0,0,0L53.2,4L53,3.9
		c0,0,0,0,0,0l0.2,0L53.4,3.7C53.3,3.7,53.4,3.7,53.4,3.7z"/>
	<path class="st3" d="M53.4,4.7l0.1,0.2l0.2,0c0,0,0,0,0,0L53.5,5l0.1,0.2c0,0,0,0,0,0l-0.2-0.1l-0.2,0.1c0,0,0,0,0,0L53.2,5L53,4.9
		c0,0,0,0,0,0l0.2,0L53.4,4.7C53.3,4.7,53.4,4.7,53.4,4.7z"/>
	<path class="st3" d="M54.2,1.2l0.1,0.2l0.2,0c0,0,0,0,0,0l-0.2,0.1l0.1,0.2c0,0,0,0,0,0l-0.2-0.1L54,1.7c0,0,0,0,0,0L54,1.5
		l-0.2-0.1c0,0,0,0,0,0l0.2,0L54.2,1.2C54.1,1.1,54.1,1.1,54.2,1.2z"/>
	<path class="st3" d="M54.2,2.2l0.1,0.2l0.2,0c0,0,0,0,0,0l-0.2,0.1l0.1,0.2c0,0,0,0,0,0l-0.2-0.1L54,2.7c0,0,0,0,0,0L54,2.5
		l-0.2-0.1c0,0,0,0,0,0l0.2,0L54.2,2.2C54.1,2.1,54.1,2.1,54.2,2.2z"/>
	<path class="st3" d="M54.2,3.2l0.1,0.2l0.2,0c0,0,0,0,0,0l-0.2,0.1l0.1,0.2c0,0,0,0,0,0l-0.2-0.1L54,3.8c0,0,0,0,0,0L54,3.5
		l-0.2-0.1c0,0,0,0,0,0l0.2,0L54.2,3.2C54.1,3.1,54.1,3.1,54.2,3.2z"/>
	<path class="st3" d="M54.2,4.2l0.1,0.2l0.2,0c0,0,0,0,0,0l-0.2,0.1l0.1,0.2c0,0,0,0,0,0l-0.2-0.1L54,4.8c0,0,0,0,0,0L54,4.5
		l-0.2-0.1c0,0,0,0,0,0l0.2,0L54.2,4.2C54.1,4.1,54.1,4.1,54.2,4.2z"/>
	<path class="st3" d="M54.9,0.7L55,0.9l0.2,0c0,0,0,0,0,0L55.1,1l0.1,0.2c0,0,0,0,0,0l-0.2-0.1l-0.2,0.1c0,0,0,0,0,0L54.8,1
		l-0.2-0.1c0,0,0,0,0,0l0.2,0L54.9,0.7C54.9,0.6,54.9,0.6,54.9,0.7z"/>
	<path class="st3" d="M54.9,1.7L55,1.9l0.2,0c0,0,0,0,0,0L55.1,2l0.1,0.2c0,0,0,0,0,0l-0.2-0.1l-0.2,0.1c0,0,0,0,0,0L54.8,2
		l-0.2-0.1c0,0,0,0,0,0l0.2,0L54.9,1.7C54.9,1.6,54.9,1.6,54.9,1.7z"/>
	<path class="st3" d="M54.9,2.7L55,2.9l0.2,0c0,0,0,0,0,0L55.1,3l0.1,0.2c0,0,0,0,0,0l-0.2-0.1l-0.2,0.1c0,0,0,0,0,0L54.8,3
		l-0.2-0.1c0,0,0,0,0,0l0.2,0L54.9,2.7C54.9,2.6,54.9,2.6,54.9,2.7z"/>
	<path class="st3" d="M54.9,3.7L55,3.9l0.2,0c0,0,0,0,0,0L55.1,4l0.1,0.2c0,0,0,0,0,0l-0.2-0.1l-0.2,0.1c0,0,0,0,0,0L54.8,4
		l-0.2-0.1c0,0,0,0,0,0l0.2,0L54.9,3.7C54.9,3.7,54.9,3.7,54.9,3.7z"/>
	<path class="st3" d="M54.9,4.7L55,4.9l0.2,0c0,0,0,0,0,0L55.1,5l0.1,0.2c0,0,0,0,0,0l-0.2-0.1l-0.2,0.1c0,0,0,0,0,0L54.8,5
		l-0.2-0.1c0,0,0,0,0,0l0.2,0L54.9,4.7C54.9,4.7,54.9,4.7,54.9,4.7z"/>
	<path class="st3" d="M55.7,1.2l0.1,0.2l0.2,0c0,0,0,0,0,0l-0.2,0.1l0.1,0.2c0,0,0,0,0,0l-0.2-0.1l-0.2,0.1c0,0,0,0,0,0l0.1-0.2
		l-0.2-0.1c0,0,0,0,0,0l0.2,0L55.7,1.2C55.7,1.1,55.7,1.1,55.7,1.2z"/>
	<path class="st3" d="M55.7,2.2l0.1,0.2l0.2,0c0,0,0,0,0,0l-0.2,0.1l0.1,0.2c0,0,0,0,0,0l-0.2-0.1l-0.2,0.1c0,0,0,0,0,0l0.1-0.2
		l-0.2-0.1c0,0,0,0,0,0l0.2,0L55.7,2.2C55.7,2.1,55.7,2.1,55.7,2.2z"/>
	<path class="st3" d="M55.7,3.2l0.1,0.2l0.2,0c0,0,0,0,0,0l-0.2,0.1l0.1,0.2c0,0,0,0,0,0l-0.2-0.1l-0.2,0.1c0,0,0,0,0,0l0.1-0.2
		l-0.2-0.1c0,0,0,0,0,0l0.2,0L55.7,3.2C55.7,3.1,55.7,3.1,55.7,3.2z"/>
	<path class="st3" d="M55.7,4.2l0.1,0.2l0.2,0c0,0,0,0,0,0l-0.2,0.1l0.1,0.2c0,0,0,0,0,0l-0.2-0.1l-0.2,0.1c0,0,0,0,0,0l0.1-0.2
		l-0.2-0.1c0,0,0,0,0,0l0.2,0L55.7,4.2C55.7,4.1,55.7,4.1,55.7,4.2z"/>
	<path class="st3" d="M56.5,0.7l0.1,0.2l0.2,0c0,0,0,0,0,0L56.6,1l0.1,0.2c0,0,0,0,0,0l-0.2-0.1l-0.2,0.1c0,0,0,0,0,0L56.3,1
		l-0.2-0.1c0,0,0,0,0,0l0.2,0L56.5,0.7C56.5,0.6,56.5,0.6,56.5,0.7z"/>
	<path class="st3" d="M56.5,1.7l0.1,0.2l0.2,0c0,0,0,0,0,0L56.6,2l0.1,0.2c0,0,0,0,0,0l-0.2-0.1l-0.2,0.1c0,0,0,0,0,0L56.3,2
		l-0.2-0.1c0,0,0,0,0,0l0.2,0L56.5,1.7C56.5,1.6,56.5,1.6,56.5,1.7z"/>
	<path class="st3" d="M56.5,2.7l0.1,0.2l0.2,0c0,0,0,0,0,0L56.6,3l0.1,0.2c0,0,0,0,0,0l-0.2-0.1l-0.2,0.1c0,0,0,0,0,0L56.3,3
		l-0.2-0.1c0,0,0,0,0,0l0.2,0L56.5,2.7C56.5,2.6,56.5,2.6,56.5,2.7z"/>
	<path class="st3" d="M56.5,3.7l0.1,0.2l0.2,0c0,0,0,0,0,0L56.6,4l0.1,0.2c0,0,0,0,0,0l-0.2-0.1l-0.2,0.1c0,0,0,0,0,0L56.3,4
		l-0.2-0.1c0,0,0,0,0,0l0.2,0L56.5,3.7C56.5,3.7,56.5,3.7,56.5,3.7z"/>
	<path class="st3" d="M56.5,4.7l0.1,0.2l0.2,0c0,0,0,0,0,0L56.6,5l0.1,0.2c0,0,0,0,0,0l-0.2-0.1l-0.2,0.1c0,0,0,0,0,0L56.3,5
		l-0.2-0.1c0,0,0,0,0,0l0.2,0L56.5,4.7C56.5,4.7,56.5,4.7,56.5,4.7z"/>
	<path class="st3" d="M57.3,1.2l0.1,0.2l0.2,0c0,0,0,0,0,0l-0.2,0.1l0.1,0.2c0,0,0,0,0,0l-0.2-0.1l-0.2,0.1c0,0,0,0,0,0l0.1-0.2
		l-0.2-0.1c0,0,0,0,0,0l0.2,0L57.3,1.2C57.2,1.1,57.3,1.1,57.3,1.2z"/>
	<path class="st3" d="M57.3,2.2l0.1,0.2l0.2,0c0,0,0,0,0,0l-0.2,0.1l0.1,0.2c0,0,0,0,0,0l-0.2-0.1l-0.2,0.1c0,0,0,0,0,0l0.1-0.2
		l-0.2-0.1c0,0,0,0,0,0l0.2,0L57.3,2.2C57.2,2.1,57.3,2.1,57.3,2.2z"/>
	<path class="st3" d="M57.3,3.2l0.1,0.2l0.2,0c0,0,0,0,0,0l-0.2,0.1l0.1,0.2c0,0,0,0,0,0l-0.2-0.1l-0.2,0.1c0,0,0,0,0,0l0.1-0.2
		l-0.2-0.1c0,0,0,0,0,0l0.2,0L57.3,3.2C57.2,3.1,57.3,3.1,57.3,3.2z"/>
	<path class="st3" d="M57.3,4.2l0.1,0.2l0.2,0c0,0,0,0,0,0l-0.2,0.1l0.1,0.2c0,0,0,0,0,0l-0.2-0.1l-0.2,0.1c0,0,0,0,0,0l0.1-0.2
		l-0.2-0.1c0,0,0,0,0,0l0.2,0L57.3,4.2C57.2,4.1,57.3,4.1,57.3,4.2z"/>
	<path class="st3" d="M58.1,0.7l0.1,0.2l0.2,0c0,0,0,0,0,0L58.2,1l0.1,0.2c0,0,0,0,0,0L58,1.1l-0.2,0.1c0,0,0,0,0,0L57.9,1l-0.2-0.1
		c0,0,0,0,0,0l0.2,0L58.1,0.7C58,0.6,58,0.6,58.1,0.7z"/>
	<path class="st3" d="M58.1,1.7l0.1,0.2l0.2,0c0,0,0,0,0,0L58.2,2l0.1,0.2c0,0,0,0,0,0L58,2.1l-0.2,0.1c0,0,0,0,0,0L57.9,2l-0.2-0.1
		c0,0,0,0,0,0l0.2,0L58.1,1.7C58,1.6,58,1.6,58.1,1.7z"/>
	<path class="st3" d="M58.1,2.7l0.1,0.2l0.2,0c0,0,0,0,0,0L58.2,3l0.1,0.2c0,0,0,0,0,0L58,3.1l-0.2,0.1c0,0,0,0,0,0L57.9,3l-0.2-0.1
		c0,0,0,0,0,0l0.2,0L58.1,2.7C58,2.6,58,2.6,58.1,2.7z"/>
	<path class="st3" d="M58.1,3.7l0.1,0.2l0.2,0c0,0,0,0,0,0L58.2,4l0.1,0.2c0,0,0,0,0,0L58,4.1l-0.2,0.1c0,0,0,0,0,0L57.9,4l-0.2-0.1
		c0,0,0,0,0,0l0.2,0L58.1,3.7C58,3.7,58,3.7,58.1,3.7z"/>
	<path class="st3" d="M58.1,4.7l0.1,0.2l0.2,0c0,0,0,0,0,0L58.2,5l0.1,0.2c0,0,0,0,0,0L58,5.2l-0.2,0.1c0,0,0,0,0,0L57.9,5l-0.2-0.1
		c0,0,0,0,0,0l0.2,0L58.1,4.7C58,4.7,58,4.7,58.1,4.7z"/>
</g>
</svg>
